<svg width="19" height="17" viewBox="0 0 19 17" fill="none" xmlns="http://www.w3.org/2000/svg">
<path d="M3.39383 16.776H9.0277V10.8126H7.00355V8.8467H9.0277V6.38928C9.0277 5.03425 10.1627 3.93187 11.5579 3.93187H14.0881V5.8978H12.0639C11.5058 5.8978 11.0518 6.33873 11.0518 6.88076V8.8467H13.9967L13.6594 10.8126H11.0518V16.776H15.6062C17.0013 16.776 18.1364 15.6736 18.1364 14.3185V2.45742C18.1364 1.10238 17.0013 0 15.6062 0H3.39383C1.99867 0 0.863647 1.10238 0.863647 2.45742V14.3185C0.863647 15.6736 1.99867 16.776 3.39383 16.776ZM1.87572 2.45742C1.87572 1.64442 2.55676 0.982966 3.39383 0.982966H15.6062C16.4432 0.982966 17.1243 1.64442 17.1243 2.45742V14.3185C17.1243 15.1315 16.4432 15.793 15.6062 15.793H12.0639V11.7956H14.5167L15.1915 7.86373H12.0639V6.88076H15.1001V2.9489H11.5579C9.60463 2.9489 8.01563 4.49221 8.01563 6.38928V7.86373H5.99148V11.7956H8.01563V15.793H3.39383C2.55676 15.793 1.87572 15.1315 1.87572 14.3185V2.45742Z" fill="white"/>
</svg>
