<svg width="19" height="17" viewBox="0 0 19 17" fill="none" xmlns="http://www.w3.org/2000/svg">
<path d="M3.39383 16.776H15.6062C17.0013 16.776 18.1364 15.6736 18.1364 14.3185V2.45742C18.1364 1.10238 17.0013 0 15.6062 0H3.39383C1.99867 0 0.863647 1.10238 0.863647 2.45742V14.3185C0.863647 15.6736 1.99867 16.776 3.39383 16.776ZM1.87572 2.45742C1.87572 1.64442 2.55676 0.982966 3.39383 0.982966H15.6062C16.4432 0.982966 17.1243 1.64442 17.1243 2.45742V14.3185C17.1243 15.1315 16.4432 15.793 15.6062 15.793H3.39383C2.55676 15.793 1.87572 15.1315 1.87572 14.3185V2.45742Z" fill="white"/>
<path d="M9.5 12.8113C12.0112 12.8113 14.0543 10.827 14.0543 8.38798C14.0543 5.94899 12.0112 3.96463 9.5 3.96463C6.9888 3.96463 4.94568 5.94899 4.94568 8.38798C4.94568 10.827 6.9888 12.8113 9.5 12.8113ZM9.5 4.9476C11.4532 4.9476 13.0423 6.49091 13.0423 8.38798C13.0423 10.2851 11.4532 11.8284 9.5 11.8284C7.54676 11.8284 5.95775 10.2851 5.95775 8.38798C5.95775 6.49091 7.54676 4.9476 9.5 4.9476Z" fill="white"/>
<path d="M14.2728 4.70905C15.0999 4.70905 15.7728 4.05548 15.7728 3.25218C15.7728 2.44888 15.0999 1.79532 14.2728 1.79532C13.4457 1.79532 12.7728 2.44888 12.7728 3.25218C12.7728 4.05548 13.4457 4.70905 14.2728 4.70905ZM14.2728 2.76656C14.5485 2.76656 14.7728 2.98446 14.7728 3.25218C14.7728 3.51991 14.5485 3.7378 14.2728 3.7378C13.9972 3.7378 13.7728 3.51991 13.7728 3.25218C13.7728 2.98446 13.9972 2.76656 14.2728 2.76656Z" fill="white"/>
</svg>
