<svg width="19" height="14" viewBox="0 0 19 14" fill="none" xmlns="http://www.w3.org/2000/svg">
<path d="M18.1364 1.83371C17.0498 1.88234 17.0735 1.87837 16.9507 1.88836L17.5942 0.103532C17.5942 0.103532 15.5856 0.821174 15.0764 0.949548C13.7391 -0.217852 11.7513 -0.269432 10.3302 0.578888C9.16646 1.27375 8.54183 2.467 8.75017 3.86171C6.48526 3.55646 4.57695 2.51372 3.07031 0.755899L2.59379 0.200037L2.23772 0.835125C1.78769 1.63762 1.63825 2.55519 1.81681 3.41874C1.89008 3.77302 2.01462 4.11091 2.18712 4.4273L1.77833 4.27346L1.72984 4.93683C1.68069 5.6107 1.9117 6.39733 2.34789 7.04086C2.47071 7.2221 2.62884 7.42112 2.82928 7.61746L2.61804 7.58598L2.8758 8.34611C3.21461 9.34482 3.91831 10.1175 4.83155 10.547C3.9195 10.9229 3.18272 11.1628 1.97166 11.5497L0.863647 11.9035L1.88705 12.4469C2.27725 12.6541 3.65607 13.3462 5.01842 13.5538C8.04673 14.0151 11.4563 13.6394 13.7516 11.6316C15.685 9.94049 16.3194 7.53491 16.1876 5.03154C16.1677 4.65257 16.2746 4.29086 16.4886 4.01325C16.9173 3.45739 18.1337 1.83742 18.1364 1.83371ZM15.6793 3.4245C15.3239 3.88539 15.1459 4.47402 15.1778 5.08172C15.3107 7.60684 14.6033 9.56509 13.0751 10.9018C11.2898 12.4634 8.41031 13.0764 5.1751 12.5835C4.58921 12.4943 3.98368 12.2945 3.48252 12.0949C4.49788 11.7556 5.28198 11.4532 6.54825 10.8711L8.31595 10.0585L6.36429 9.93716C5.42944 9.87905 4.65101 9.43902 4.17252 8.72458C4.42659 8.71024 4.67157 8.67031 4.9155 8.60427L6.77689 8.10075L4.89995 7.65432C3.98789 7.43738 3.46802 6.90737 3.19247 6.50087C3.01153 6.23376 2.89333 5.96011 2.82243 5.70785C3.01061 5.75687 3.23003 5.79181 3.58386 5.82585L5.32112 5.99275L3.94467 4.94989C2.95289 4.19858 2.55544 3.06984 2.84681 1.98473C5.94206 5.10283 9.5763 4.86848 9.94212 4.95091C9.8616 4.19129 9.8595 4.1895 9.83841 4.11718C9.36993 2.50873 10.3966 1.69202 10.8597 1.41556C11.827 0.838197 13.3623 0.751163 14.4258 1.70239C14.6555 1.90768 14.9661 1.98845 15.2568 1.91831C15.5177 1.85534 15.7319 1.78865 15.9416 1.71608L15.5051 2.92661L16.0623 2.927C15.9571 3.06395 15.831 3.2279 15.6793 3.4245Z" fill="white"/>
</svg>
